<?xml version="1.0" standalone="no"?>
<!DOCTYPE svg PUBLIC "-//W3C//DTD SVG 1.1//EN" "http://www.w3.org/Graphics/SVG/1.1/DTD/svg11.dtd" >
<svg>
<metadata>
Created by FontForge 20090622 at Sat Nov 12 12:26:22 2016
 By deploy user
</metadata>
<defs>
<font id="gensocial" horiz-adv-x="1024" >
  <font-face 
    font-family="gensocial"
    font-weight="400"
    font-stretch="normal"
    units-per-em="1024"
    panose-1="0 0 0 0 0 0 0 0 0 0"
    ascent="1024"
    descent="0"
    bbox="0 0 1024 1024"
    underline-thickness="0"
    underline-position="0"
    unicode-range="U+0001-U+FFFD"
  />
<missing-glyph 
 />
    <glyph glyph-name=".notdef" unicode="&#xfffd;" 
 />
    <glyph glyph-name="glyph1" horiz-adv-x="0" 
d="M0 0v0v0v0z" />
    <glyph glyph-name="glyph1" horiz-adv-x="0" 
d="M0 0v0v0v0z" />
    <glyph glyph-name="uni0001" horiz-adv-x="0" 
d="M0 0v0v0v0z" />
    <glyph glyph-name="space" unicode=" " horiz-adv-x="0" 
d="M0 0v0v0v0z" />
    <glyph glyph-name="uniF200" unicode="&#xf200;" 
d="M512 1024q106 0 199.5 -40t163 -109.5t109.5 -163t40 -199.5q0 -85 -26 -162t-72.5 -140.5t-111 -110.5t-140.5 -73q-19 -3 -27 6t-8 19q0 12 0.5 50.5t0.5 89.5q0 36 -10.5 59.5t-24.5 35.5q43 5 84.5 17.5t75 40t54 74.5t20.5 121q0 42 -14 76t-39 61q4 10 10 46.5
t-15 89.5l-34 -1.5t-107 -51.5q-30 9 -62.5 13t-65.5 4t-65.5 -4t-62.5 -13q-74 50 -107.5 51.5l-33.5 1.5q-21 -53 -15 -89.5t10 -46.5q-24 -27 -38.5 -61t-14.5 -76q0 -74 20.5 -121t53.5 -74.5t75 -40t85 -17.5q-11 -10 -20 -27t-13 -42q-22 -10 -68.5 -13t-80.5 56
l-20 25t-58 28l-19.5 -4t15.5 -27l19.5 -15.5t37.5 -59.5l33 -46t139 -23q1 -32 1 -55v-32q0 -10 -8 -19t-27 -6q-76 26 -140.5 73t-111 110.5t-72.5 140.5t-26 162q0 106 40 199.5t109.5 163t163 109.5t199.5 40v0z" />
    <glyph glyph-name="uniF201" unicode="&#xf201;" 
d="M512 64q48 0 95 11t89 29q-3 27 -9.5 61.5t-18.5 77.5t-30.5 94t-45.5 111q-54 -18 -105.5 -46t-97.5 -65t-84 -81.5t-65 -95.5q54 -48 124 -72t148 -24zM768 144q39 27 71.5 62.5t57.5 76.5t41 87t22 94q-72 12 -141 12t-147 -12q3 -6 14 -33t25 -70t29.5 -98.5
t27.5 -118.5zM64 544v-32q0 -42 7.5 -82t21.5 -77.5t35 -72t48 -64.5q33 54 78 100t97 83.5t107.5 66t109.5 46.5q-6 18 -17 41l-23 47q-69 -21 -126.5 -34.5t-111.5 -20.5t-108.5 -7t-117.5 6zM880 768q-60 -48 -134 -78t-146 -66q18 -24 27 -44t21 -44q39 9 82.5 12.5
t85.5 2.5t79.5 -5t64.5 -10q-6 66 -25 125t-55 107zM336 928q-48 -21 -89.5 -52t-74.5 -71t-56.5 -87.5t-35.5 -101.5q54 -6 115.5 -2.5t119.5 11.5t106 19t75 20q-36 72 -74 135t-86 129zM512 960q-24 0 -48 -4t-48 -4l79 -131l73 -125l58 21t71 28t72.5 35.5t62.5 43.5
q-30 30 -65.5 55t-76 43t-85.5 28t-93 10zM512 1024q105 0 198 -40.5t163 -110.5t110.5 -163t40.5 -198t-40.5 -198t-110.5 -163t-163 -110.5t-198 -40.5t-198 40.5t-163 110.5t-110.5 163t-40.5 198t40.5 198t110.5 163t163 110.5t198 40.5z" />
    <glyph glyph-name="uniF202" unicode="&#xf202;" 
d="M960 792q-18 -28 -41.5 -52t-50.5 -43q1 -6 1 -12v-12q0 -91 -34.5 -184t-100.5 -168.5t-163.5 -123t-224.5 -47.5q-78 0 -149.5 21.5t-132.5 61.5q11 -2 22 -2.5t22 -0.5q64 0 122.5 21t105.5 58q-60 1 -107 36.5t-65 90.5l17.5 -2t17.5 -1q13 0 25 1.5t23 4.5
q-63 13 -105 63.5t-42 117.5v2q19 -10 40 -16t43 -7q-37 25 -59 65t-22 88q0 25 6.5 48.5t17.5 43.5q34 -41 76 -75.5t90.5 -59t102 -39.5t110.5 -18q-2 10 -3 20.5t-1 21.5q0 76 53.5 130t129.5 54q40 0 74.5 -15.5t60.5 -42.5q31 6 60.5 17.5t55.5 27.5q-10 -33 -31 -59
t-50 -43q28 3 54.5 10.5t51.5 18.5v0z" />
    <glyph glyph-name="uniF204" unicode="&#xf204;" 
d="M591 636h164l-7 -151h-157v-421h-160v421h-111v151h111v129q0 76 52 135.5t165 59.5q46 0 76.5 -3l30.5 -3l-4 -141h-29.5h-67.5q-41 0 -52 -17.5t-11 -49.5v-5.5v-1.5v-103z" />
    <glyph glyph-name="uniF205" unicode="&#xf205;" 
d="M512 960q93 0 174.5 -35.5t142 -96t96 -142t35.5 -174.5t-35.5 -174.5t-96 -142t-142 -96t-174.5 -35.5t-174.5 35.5t-142 96t-96 142t-35.5 174.5t35.5 174.5t96 142t142 96t174.5 35.5zM109 512q0 -60 16.5 -115t46.5 -101.5t72 -84t92 -61.5l-192 526q-17 -38 -26 -79
t-9 -85v0zM512 109q35 0 68.5 6t65.5 17q-1 1 -1.5 2.5t-1.5 3.5l-124 339l-121 -351q27 -8 55.5 -12.5t58.5 -4.5v0zM567 701l146 -433l40 134l22 73t9 57q0 38 -11 64.5t-22 46.5q-16 25 -28 47.5t-12 47.5q0 28 19 49.5t49 21.5h2.5h2.5q-54 49 -123.5 77.5t-148.5 28.5
q-53 0 -102 -13t-92 -37t-79.5 -57.5t-63.5 -74.5h14.5h11.5q32 0 70 2.5l38 2.5q16 1 17.5 -15t-15.5 -18l-14 -1.5t-32 -2.5l147 -436l88 264l-63 172q-16 1 -29 2.5l-13 1.5q-16 1 -15 17.5t18 15.5l38 -2.5t68 -2.5q31 0 69 2.5l38 2.5q16 1 17.5 -15t-14.5 -18
l-14 -1.5t-33 -2.5v0zM865 705q2 -9 2.5 -19.5t0.5 -21.5q0 -31 -6.5 -66t-23.5 -78l-124 -356q45 26 82 63t63.5 81.5t41 96t14.5 107.5q0 53 -13 101.5t-37 91.5v0z" />
    <glyph glyph-name="uniF206" unicode="&#xf206;" 
d="M286 285h-27.5h-27.5q-48 0 -90 -11.5t-77 -30.5v242q29 -29 70.5 -46t94.5 -17q8 0 15 0.5t14 0.5q-7 -13 -11.5 -28t-4.5 -31q0 -26 13 -43.5t31 -35.5v0zM288 469q-62 1 -112.5 52.5t-61.5 131.5q-11 81 25 135t97 53q62 -2 109 -60t57 -138q11 -81 -21 -128.5
t-93 -45.5v0zM483 109q2 -8 3 -16t1 -17q0 -3 -0.5 -6t-0.5 -6h-294q-43 0 -76.5 25.5t-45.5 65.5q28 41 82 67.5t119 26.5q21 -1 41 -4t38 -9l86 -61t47 -66v0zM960 768h-128v128h-64v-128h-128v-64h128v-128h64v128h128v-512q0 -53 -37.5 -90.5t-90.5 -37.5h-253
q1 6 1.5 12.5t0.5 12.5q0 69 -22.5 113t-95.5 99l-55 43.5t-34 49.5q0 26 11 43.5t50 47.5q39 31 64 71.5t25 90.5q0 55 -22 101.5t-64 70.5h80l68 71h-304q-65 0 -122 -25t-96 -66v33q0 53 37.5 90.5t90.5 37.5h640q53 0 90.5 -37.5t37.5 -90.5v-64v0z" />
    <glyph glyph-name="uniF207" unicode="&#xf207;" 
d="M302 128h-164v495h164v-495zM220 691h-1q-41 0 -66 25t-25 61t25.5 60.5t67.5 24.5t66.5 -24.5t25.5 -60.5q0 -36 -25 -61t-68 -25v0zM896 128h-165v265q0 50 -19 81t-64 31q-34 0 -55 -19t-29 -41q-4 -8 -5 -18.5t-1 -21.5v-277h-165l0.5 71t0.5 159.5v168t-1 96.5h165
v-70q17 25 50 53.5t98 28.5q82 0 136 -54.5t54 -168.5v-284v0z" />
    <glyph glyph-name="uniF209" unicode="&#xf209;" 
d="M537 1024q90 0 163.5 -30t126 -80.5t81 -115.5t28.5 -135q0 -93 -24.5 -172.5t-69.5 -137t-107.5 -90.5t-138.5 -33q-52 0 -95 23.5t-60 55.5l-19 -76.5t-25 -97.5q-10 -36 -28 -71.5t-36 -63.5l-74 27q-1 33 0.5 71t10.5 74q4 19 17.5 75l27.5 116l25 106.5l11 46.5
l-10 27.5t-10 72.5q0 70 35.5 116.5t86.5 46.5q43 0 64 -28t21 -67q0 -43 -21 -103.5t-35 -120.5q-12 -50 19 -85.5t81 -35.5q44 0 81 27t63.5 72.5t41 106.5t14.5 129q0 52 -17.5 96.5t-50.5 77t-82 50.5t-113 18q-72 0 -129.5 -24.5t-97.5 -66.5t-62 -96.5t-22 -114.5
q0 -41 11.5 -71t30.5 -53q9 -10 10.5 -16.5t-1.5 -18.5q-2 -9 -6.5 -25.5t-6.5 -25.5q-3 -12 -11.5 -16t-19.5 1q-66 27 -97.5 93t-31.5 148q0 67 28 137t84.5 127t141 93.5t197.5 36.5v0z" />
    <glyph glyph-name="uniF211" unicode="&#xf211;" 
d="M736 720q43 0 81 -16.5t66 -44.5t44.5 -66t16.5 -81t-16.5 -81t-44.5 -66t-66 -44.5t-81 -16.5t-81 16.5t-66 44.5t-44.5 66t-16.5 81t16.5 81t44.5 66t66 44.5t81 16.5zM288 720q43 0 81 -16.5t66 -44.5t44.5 -66t16.5 -81t-16.5 -81t-44.5 -66t-66 -44.5t-81 -16.5
t-81 16.5t-66 44.5t-44.5 66t-16.5 81t16.5 81t44.5 66t66 44.5t81 16.5z" />
    <glyph glyph-name="uniF212" unicode="&#xf212;" 
d="M829 896q69 -2 102 -46.5t29 -131.5q-2 -32 -14 -70.5t-35 -83t-56.5 -94.5t-77.5 -107q-46 -58 -88 -102.5t-80.5 -74t-74 -44t-66.5 -14.5q-40 0 -73 36t-60 107l-36 131.5l-36 131.5q-20 72 -41.5 107.5t-44.5 35.5q-6 0 -23.5 -10t-47.5 -31l-42 53l66 58l65 58
q44 38 77 58t55 22q53 5 85 -30.5t44 -111.5q13 -82 22 -132.5t14 -70.5q16 -68 32.5 -102t34.5 -34q14 0 35 22t49 66q29 44 44 77.5t17 56.5q4 38 -11 57t-50 19q-16 0 -32.5 -3.5t-33.5 -10.5q17 53 41 93t55.5 66t70.5 38t85 11v0z" />
    <glyph glyph-name="uniF213" unicode="&#xf213;" 
d="M768 832q79 0 135.5 -56t56.5 -136v-256q0 -80 -56.5 -136t-135.5 -56h-512q-80 0 -136 56t-56 136v256q0 80 56 136t136 56h512zM384 320l320 192l-320 192v-384z" />
    <glyph glyph-name="uniF214" unicode="&#xf214;" 
d="M546 960v-226h212v-141h-212v-230q0 -39 2 -64t6 -36t11.5 -20t19.5 -15q14 -9 31 -13.5t37 -4.5q34 0 67.5 11t67.5 33v-141q-29 -14 -55 -23.5t-49 -14.5q-23 -6 -48.5 -8.5t-52.5 -2.5q-30 0 -57.5 4t-50.5 11q-24 8 -44 19t-37 26q-17 14 -28.5 29.5t-17.5 31.5
q-7 16 -10 39.5t-3 54.5v314h-99v127q26 8 49 20.5t41 28.5q19 16 34.5 35t26.5 42q11 22 19 50.5t12 63.5h128v0z" />
    <glyph glyph-name="uniF215" unicode="&#xf215;" 
d="M832 960q53 0 90.5 -37.5t37.5 -90.5v-640q0 -53 -37.5 -90.5t-90.5 -37.5h-640q-53 0 -90.5 37.5t-37.5 90.5v640q0 53 37.5 90.5t90.5 37.5h640zM512 704q-80 0 -136 -56t-56 -136q0 -79 56 -135.5t136 -56.5q79 0 135.5 56.5t56.5 135.5q0 80 -56.5 136t-135.5 56z
M896 192v384h-137q4 -15 6.5 -31t2.5 -33q0 -53 -20 -99.5t-55 -81.5t-81.5 -55t-99.5 -20t-99.5 20t-81.5 55t-55 81.5t-20 99.5q0 17 2.5 33t6.5 31h-137v-384q0 -27 19 -45.5t45 -18.5h640q27 0 45.5 18.5t18.5 45.5zM896 768v64q0 26 -18.5 45t-45.5 19h-64
q-27 0 -45.5 -19t-18.5 -45v-64q0 -26 18.5 -45t45.5 -19h64q27 0 45.5 19t18.5 45z" />
    <glyph glyph-name="uniF216" unicode="&#xf216;" 
d="M896 633v-2v-2v-234v-2v-2v-1v-1q-1 0 -1 -1v-2v-0.5v-0.5q-1 -1 -1 -1.5v-0.5q-1 -1 -1 -1.5v-0.5q0 -1 -0.5 -1.5l-0.5 -0.5q0 -1 -0.5 -1t-0.5 -1q-1 0 -1 -0.5t-1 -1.5v-0.5t-1 -0.5l-0.5 -0.5t-0.5 -1.5q-1 0 -1 -0.5t-1 -0.5q0 -1 -0.5 -1t-1.5 -1l-0.5 -0.5
l-0.5 -0.5h-1l-351 -234q-4 -3 -8.5 -4t-9.5 -1t-9.5 1t-8.5 4l-351 234h-1v0l-1 1l-1.5 1.5l-0.5 0.5q-1 0 -1 0.5t-1 0.5q0 1 -0.5 1.5l-0.5 0.5q-1 0 -1 0.5v0.5q-1 1 -1 1.5t-1 0.5q0 1 -0.5 1t-0.5 1l-0.5 1l-0.5 1v0.5t-1 1.5v0.5v1.5q-1 0 -1 0.5v1.5v1t-1 1v1.5v0.5
v2v2v234v2v2v0.5v0.5q1 1 1 1.5v1.5v1l1 1v1v1l1 1v1l0.5 0.5t0.5 1.5q1 0 1 0.5v0.5q1 1 1 1.5t1 0.5v1l1 1l0.5 0.5t0.5 1.5q1 0 1 0.5t1 0.5l0.5 0.5l1.5 1.5l1 1v0h1l351 234q8 5 18 5t18 -5l351 -234h0.5t0.5 -1h0.5t0.5 -1q1 0 1.5 -0.5l0.5 -0.5l1 -1l1 -1l0.5 -0.5
l0.5 -0.5q0 -1 0.5 -1t0.5 -1q1 0 1 -0.5t1 -1.5v-0.5t1 -0.5q0 -1 0.5 -1.5l0.5 -0.5v-1l1 -1v-1.5v-0.5l1 -1v-1v-1.5t1 -1.5v-0.5v-0.5v0zM545 801v-154l143 -96l116 78zM479 801l-259 -172l116 -78l143 96v154zM194 567v-110l82 55zM479 223v154l-143 95l-116 -77z
M512 434l117 78l-117 78l-117 -78zM545 223l259 172l-116 77l-143 -95v-154v0zM830 457v110l-82 -55z" />
    <glyph glyph-name="uniF217" unicode="&#xf217;" 
d="M512 960q93 0 174.5 -35.5t142 -96t96 -142t35.5 -174.5t-35.5 -174.5t-96 -142t-142 -96t-174.5 -35.5t-174.5 35.5t-142 96t-96 142t-35.5 174.5t35.5 174.5t96 142t142 96t174.5 35.5zM556 885q-39 2 -78 -5t-75.5 -21t-69 -35.5t-59.5 -48.5q-55 -54 -80 -128
t-15 -148q9 -74 50.5 -138t103.5 -100q60 -36 131.5 -39.5t134.5 24.5q-18 -5 -36.5 -7.5t-37.5 -2.5q-57 0 -107 21.5t-87.5 59t-59.5 87.5t-22 107q0 54 20 102t54 85l0.5 0.5l0.5 0.5q2 2 3.5 4t3.5 3v1h1q48 56 116.5 88.5t147.5 32.5q83 0 154 -35.5t119 -96.5
q-8 13 -16.5 25t-18.5 23q-26 32 -57.5 57.5t-67.5 43.5t-74.5 28t-78.5 12zM708 503q1 -34 -9.5 -67.5t-31.5 -60.5q-21 -28 -50 -48.5t-63 -30.5q-28 -8 -57.5 -9t-59.5 6q21 -9 43 -13t45 -4q48 0 91 18.5t75 50.5t50.5 75t18.5 91v1v1q-5 53 -31.5 100.5t-68.5 78.5
q-51 40 -117.5 44.5t-122.5 -25.5q-27 -14 -50 -35.5t-38 -47.5t-21.5 -56t-4.5 -60q4 -59 42.5 -108t93.5 -64q55 -17 110.5 4t85.5 67q31 45 25 102t-43 94q-36 39 -90 43.5t-94 -25.5q-21 -14 -34.5 -34.5t-18.5 -43.5t-1 -47t16 -44t30.5 -34.5t40.5 -19.5
q22 -6 44.5 -2.5t41.5 15.5q19 11 32 29t17 39q4 20 -0.5 41t-16.5 38t-30 27t-38 12q-20 1 -39 -6.5t-32 -21.5q-14 -13 -19.5 -31.5t-2.5 -36.5q2 -19 13 -34.5t27 -23.5q10 -6 21 -8t22 0q-23 0 -41 14t-25 36v0.5v0.5q-7 15 -5 33.5t13 33.5q10 14 27.5 22.5t36.5 7.5
t36.5 -11.5t27.5 -27.5q10 -18 11.5 -39t-7.5 -41q-9 -19 -26.5 -32.5t-39.5 -17.5q-21 -5 -44 1t-40 22q-16 16 -25.5 38t-7.5 46q1 50 46.5 82.5t96.5 18.5q52 -12 79.5 -64t7.5 -105q-18 -54 -74.5 -80t-112.5 -4q-28 11 -50 31.5t-35 47.5t-15.5 58t6.5 61
q18 61 76.5 96t123.5 23q65 -9 111 -64t48 -123v0zM512 104q60 0 115 16.5t102 46t85 71t63 92.5q14 31 21.5 65t7.5 67q0 60 -21.5 111.5t-59 91t-88 65.5t-107.5 36q58 -24 102 -72t64 -109q13 -38 15 -79t-6.5 -81t-27.5 -77t-48 -67q-28 -31 -63 -53.5t-74.5 -36
t-82 -17.5t-84.5 3t-81.5 25t-72.5 45t-60 61t-45 73q-18 40 -26.5 83t-7 86.5t13.5 86.5t34 82q22 38 52 71t66.5 58.5t78 43t86.5 24.5q4 1 8.5 1.5t9.5 1.5q-79 -6 -148 -40t-120 -89t-80 -126.5t-29 -151.5q0 -84 32 -158.5t87.5 -130t130 -87.5t158.5 -32v0z" />
    <glyph glyph-name="uniF220" unicode="&#xf220;" 
d="M928 417q13 -25 19.5 -52t6.5 -57q0 -50 -19.5 -94.5t-52.5 -78t-77.5 -52.5t-95.5 -19q-31 0 -60 7.5t-55 21.5q-19 -3 -38.5 -5t-38.5 -2q-88 0 -164.5 33t-133.5 90.5t-90.5 134t-33.5 163.5q0 22 2.5 43.5t6.5 41.5q-16 27 -25 58.5t-9 65.5q0 50 19.5 94.5t52.5 78
t77.5 52.5t95.5 19q36 0 69 -10t61 -28q17 3 35 5t37 2q87 0 164 -33.5t134 -90.5t90 -133.5t33 -164.5q0 -23 -2.5 -45.5t-7.5 -44.5v0zM733 306q15 21 22 44.5t7 49.5q0 22 -4 40.5t-13 33.5q-8 15 -20 28t-27 22q-15 10 -33 18.5t-39 14.5q-21 7 -44.5 13l-48.5 12
q-21 4 -35.5 8t-23.5 6q-8 2 -16.5 5.5l-17.5 7.5q-8 4 -14 9t-11 10q-4 6 -6 12t-2 13q0 12 6.5 22t19.5 18q14 9 32 13.5t41 4.5q24 0 42 -4t28 -12q11 -8 20.5 -20t17.5 -27q7 -12 13 -20t12 -13q7 -6 16 -9t20 -3q13 0 24 5t20 14q8 8 12.5 18.5t4.5 21.5q0 12 -3 24
t-9 24q-7 12 -17.5 23.5t-23.5 22.5q-14 11 -31.5 19.5t-38.5 15.5q-21 6 -45.5 9.5t-52.5 3.5q-36 0 -67 -5t-57 -15t-47 -24t-35 -33q-14 -18 -21 -39.5t-7 -45.5q0 -25 6.5 -46t20.5 -38q13 -17 31 -30t41 -23q22 -10 50 -18t60 -15q24 -5 43.5 -10t33.5 -9t25.5 -10.5
t19.5 -14.5q9 -8 13 -17.5t4 -22.5q0 -16 -8 -29t-23 -24q-16 -10 -37.5 -16t-47.5 -6q-19 0 -34.5 3t-26.5 8q-12 6 -21 12.5t-15 14.5q-6 9 -12 19.5t-12 23.5q-5 12 -11 21t-14 15q-7 7 -16.5 10t-20.5 3q-13 0 -24 -4t-20 -12t-13 -18t-4 -22q0 -18 6.5 -37.5
t19.5 -38.5q14 -19 31.5 -34.5t38.5 -26.5q30 -16 67.5 -24t83.5 -8q37 0 70.5 6t60.5 17q29 12 50 28t36 37v0z" />
    <glyph glyph-name="uniF221" unicode="&#xf221;" 
d="M832 512q0 -21 -12 -37.5t-31 -22.5q5 -8 8 -17t3 -19q0 -21 -12 -37.5t-31 -22.5q5 -8 8 -17t3 -19q0 -26 -19 -45t-45 -19h-32q26 0 45 -19t19 -45t-19 -45t-45 -19h-224q-72 0 -108 32t-84 32h-64v320h96q24 0 52 23t52 65t40 101t16 131l4 32t28 32t60 -47t36 -113
q0 -72 -8 -116l-8 -44h208q26 0 45 -19t19 -45z" />
    <glyph glyph-name="uniF222" unicode="&#xf222;" 
d="M612 388q8 8 18.5 7.5t17.5 -7.5q7 -8 7 -18.5t-7 -18.5q-21 -21 -55 -32t-80 -11q-48 0 -82 11t-55 32q-7 8 -7 18.5t7 18.5q7 7 17.5 7t18.5 -7q14 -14 38.5 -21t60.5 -7q37 0 62 7t39 21v0zM447 491q0 -23 -16 -39.5t-40 -16.5q-22 0 -38.5 16.5t-16.5 39.5t16.5 39.5
t38.5 16.5q24 0 40 -16.5t16 -39.5zM633 547q23 0 39.5 -16.5t16.5 -39.5t-16.5 -39.5t-39.5 -16.5q-24 0 -40 16.5t-16 39.5t16 39.5t40 16.5zM849 545q9 6 15.5 16.5t6.5 22.5q0 20 -14.5 34.5t-34.5 14.5q-12 0 -22 -5.5t-16 -13.5q20 -15 36.5 -32.5t28.5 -36.5v0z
M511 250q65 0 122.5 16t100.5 42.5t68 62.5t25 76q0 42 -25 78t-68 62.5t-100.5 42.5t-122.5 16q-66 0 -123.5 -16t-100.5 -42.5t-68 -62.5t-25 -77t25 -77t68 -62.5t100.5 -42.5t123.5 -16v0zM153 584q0 -12 5.5 -21.5t14.5 -15.5q12 19 29 36t37 32q-6 8 -15.5 13t-20.5 5
q-21 0 -35.5 -14.5t-14.5 -34.5v0zM800 903q-16 0 -27.5 -11.5t-11.5 -27.5t11.5 -27.5t27.5 -11.5t27.5 11.5t11.5 27.5t-11.5 27.5t-27.5 11.5zM921 584q0 -28 -14 -50.5t-36 -36.5q3 -12 5 -24t2 -25q0 -52 -29 -97t-79 -79t-117 -53.5t-143 -19.5q-75 0 -142 19.5
t-117 53.5t-79 79t-29 96q0 14 2 27t6 26q-22 13 -35 35t-13 49q0 42 29 71t71 29q25 0 46 -11t34 -30q43 23 95.5 37t110.5 16l46 228q1 6 4 10t7 7q5 3 10 4t10 0l156 -37q12 20 32.5 32.5t45.5 12.5q37 0 63.5 -26t26.5 -63t-26.5 -63t-63.5 -26q-36 0 -61.5 24t-27.5 59
l-131 31l-38 -194q55 -2 105.5 -16.5t92.5 -37.5q14 20 35 31.5t47 11.5q41 0 70 -29t29 -71z" />
    <glyph glyph-name="uniF223" unicode="&#xf223;" 
d="M553 616v47q0 16 -12 28t-29 12t-29 -12t-12 -28v-241q-1 -69 -51 -117.5t-120 -48.5q-71 0 -121.5 49.5t-50.5 119.5v104h131v-103q0 -17 12 -28.5t29 -11.5t29 11.5t12 28.5v244q2 67 51.5 114.5t119.5 47.5t119.5 -47.5t51.5 -116.5v-53l-78 -23zM765 529h131v-104
q0 -70 -50.5 -119.5t-121.5 -49.5q-70 0 -120.5 49t-50.5 118v105l52 -24l78 23v-106q0 -16 12 -28t29 -12t29 12t12 28v108v0z" />
    <glyph glyph-name="uniF224" unicode="&#xf224;" 
d="M768 896q53 0 90.5 -37.5t37.5 -90.5v-192q0 -80 -30 -149.5t-82.5 -122t-122 -82.5t-149.5 -30t-149.5 30t-122 82.5t-82.5 122t-30 149.5v192q0 53 37.5 90.5t90.5 37.5h512zM749 595q19 19 19 45.5t-19 44.5q-19 19 -45 19t-45 -19l-147 -147l-147 147
q-19 19 -45.5 19t-44.5 -19q-19 -18 -19 -44.5t19 -45.5l181 -181l2 2q8 -14 22 -23t32 -9t32 9t22 23l2 -2z" />
    <glyph glyph-name="uniF300" unicode="&#xf300;" 
d="M768 768q53 0 90.5 -37.5t37.5 -90.5v-192q0 -53 -37.5 -90.5t-90.5 -37.5h-224l-224 -224v224h-64q-53 0 -90.5 37.5t-37.5 90.5v192q0 53 37.5 90.5t90.5 37.5h512z" />
    <glyph glyph-name="uniF301" unicode="&#xf301;" 
d="M352 576h480l-128 -320h-512v512h192l32 -64h224v-64h-320l-64 -128h64z" />
    <glyph glyph-name="uniF302" unicode="&#xf302;" 
d="M512 768h256v-256l-384 -384l-256 256zM640 576q27 0 45.5 18.5t18.5 45.5t-18.5 45.5t-45.5 18.5t-45.5 -18.5t-18.5 -45.5t18.5 -45.5t45.5 -18.5z" />
    <glyph glyph-name="uniF304" unicode="&#xf304;" 
d="M512 576q-53 0 -90.5 37.5t-37.5 90.5t37.5 90.5t90.5 37.5t90.5 -37.5t37.5 -90.5t-37.5 -90.5t-90.5 -37.5zM576 512q79 0 135.5 -56t56.5 -136v-128h-512v128q0 80 56.5 136t135.5 56h128z" />
    <glyph glyph-name="uniF307" unicode="&#xf307;" 
d="M384 320v64h64v-64h-64zM384 448v64h64v-64h-64zM384 576v64h64v-64h-64zM256 320v64h64v-64h-64zM256 448v64h64v-64h-64zM640 448v64h64v-64h-64zM512 576v64h64v-64h-64zM640 576v64h64v-64h-64zM704 832h128v-640h-704v640h128v64h64v-64h320v64h64v-64zM768 320v320
q0 27 -18.5 45.5t-45.5 18.5h-448q-26 0 -45 -18.5t-19 -45.5v-320q0 -27 19 -45.5t45 -18.5h448q27 0 45.5 18.5t18.5 45.5zM512 448v64h64v-64h-64zM512 320v64h64v-64h-64z" />
    <glyph glyph-name="uniF400" unicode="&#xf400;" 
d="M896 192l-64 -64l-247 247q-36 -25 -79 -40t-90 -15q-60 0 -112.5 22.5t-91.5 61.5t-61.5 91.5t-22.5 112.5t22.5 112.5t61.5 91.5t91.5 61.5t112.5 22.5t112.5 -22.5t91.5 -61.5t61.5 -91.5t22.5 -112.5q0 -47 -15 -90t-40 -79zM192 608q0 -46 17.5 -87t48 -71.5
t71.5 -48t87 -17.5t87 17.5t71.5 48t48 71.5t17.5 87t-17.5 87t-48 71.5t-71.5 48t-87 17.5t-87 -17.5t-71.5 -48t-48 -71.5t-17.5 -87z" />
    <glyph glyph-name="uniF406" unicode="&#xf406;" 
d="M1024 960l-416 -416l416 -416l-64 -64l-416 416l-416 -416l-64 64l416 416l-416 416l64 64l416 -416l416 416z" />
    <glyph glyph-name="uniF408" unicode="&#xf408;" 
d="M896 575l-238 -165l91 -267l-237 166l-237 -166l91 267l-238 165h294l90 268l90 -268h294z" />
    <glyph glyph-name="uniF410" unicode="&#xf410;" 
d="M128 768h768v-64l-384 -192l-384 192v64zM128 608l384 -192l384 192v-352h-768v352z" />
    <glyph glyph-name="uniF411" unicode="&#xf411;" 
d="M640 864l224 -224l-448 -448h-224v224zM640 768l-297 -297l48 -48l297 297zM384 256l64 64l-128 128l-64 -64zM423 391l48 -48l297 297l-48 48z" />
    <glyph glyph-name="uniF413" unicode="&#xf413;" 
d="M128 640q106 0 199.5 -40t163 -109.5t109.5 -163t40 -199.5h-128q0 79 -30 149t-82.5 122.5t-122.5 82.5t-149 30v128zM128 896q159 0 299 -60.5t244 -164.5t164.5 -244t60.5 -299h-128q0 132 -50.5 248.5t-137.5 203.5t-203.5 137.5t-248.5 50.5v128zM224 320
q40 0 68 -28t28 -68t-28 -68t-68 -28t-68 28t-28 68t28 68t68 28z" />
    <glyph glyph-name="uniF419" unicode="&#xf419;" 
d="M0 128v128h1024v-128h-1024zM0 896h1024v-128h-1024v128zM0 448v128h1024v-128h-1024z" />
    <glyph glyph-name="uniF431" unicode="&#xf431;" 
d="M704 640l64 -64l-288 -288l-288 288l64 64l224 -224z" />
    <glyph glyph-name="uniF432" unicode="&#xf432;" 
d="M704 320l-224 224l-224 -224l-64 64l288 288l288 -288z" />
    <glyph glyph-name="uniF515" unicode="&#xf515;" 
d="M512 960q93 0 174.5 -35t142.5 -96t96 -142.5t35 -174.5t-35 -174.5t-96 -142.5t-142.5 -96t-174.5 -35t-174.5 35t-142.5 96t-96 142.5t-35 174.5t35 174.5t96 142.5t142.5 96t174.5 35zM694 301q11 0 19.5 7.5t8.5 20.5q0 12 -5 18.5t-13 10.5q-56 34 -121.5 51
t-139.5 17q-43 0 -84.5 -5t-82.5 -15q-11 -2 -18 -9t-7 -22q0 -11 8 -19.5t21 -8.5q4 0 10 2t12 3q34 7 69.5 11t71.5 4q64 0 123.5 -15t108.5 -45q5 -3 9 -4.5t10 -1.5zM743 419q14 0 24 10.5t11 24.5q0 12 -5 20.5t-16 15.5q-33 20 -71 35t-78.5 25.5t-83.5 16t-87 5.5
q-56 0 -97.5 -7t-78.5 -17q-14 -4 -21 -13.5t-7 -24.5q0 -14 10 -24.5t25 -10.5q6 0 10.5 1.5l10.5 3.5q31 8 67.5 13.5t79.5 5.5q83 0 156 -20t128 -52q5 -3 10 -5.5t13 -2.5v0zM798 557q17 0 29.5 12t12.5 30q0 16 -6.5 25.5t-16.5 15.5q-38 22 -82 38.5t-92 27
t-97.5 15.5t-99.5 5q-58 0 -111 -6.5t-101 -20.5q-13 -4 -22.5 -14.5t-9.5 -28.5t12.5 -30.5t29.5 -12.5q7 0 13 2t11 3q42 11 87.5 16t90.5 5q46 0 91.5 -5t88.5 -14.5t81 -23.5t68 -32q6 -4 11 -5.5t12 -1.5v0z" />
    <glyph glyph-name="uniF516" unicode="&#xf516;" 
d="M512 726v-233h-78v233h78zM704 726v-233h-78v233h78zM162 960h798v-545l-234 -223h-175l-117 -128h-114v128h-256v612zM882 454v428h-643v-565h176v-105l117 105h214z" />
  </font>
</defs>
</svg>
